# Blender 3.5.1
# www.blender.org
mtllib M.mtl
o Ingredients_Box
v 0.880905 0.104635 0.480744
v 0.849985 0.651866 0.540694
v 0.849985 0.150000 0.540694
v 0.940854 0.651866 0.449825
v 0.940854 0.150000 0.449825
v 0.880905 0.786866 0.480744
v 0.895905 0.801866 0.495744
v 0.864985 0.666866 0.599825
v 0.849985 0.651866 0.584825
v 0.849985 0.150000 0.584825
v 0.864985 0.135000 0.599825
v 0.999985 0.666866 0.464825
v 0.984985 0.651866 0.449825
v 0.999985 0.135000 0.464825
v 0.984985 0.150000 0.449825
v 0.984985 0.801866 0.584825
v 0.984985 0.786866 0.599825
v 0.999985 0.786866 0.584825
v 0.984985 0.015000 0.599825
v 0.984985 0.000000 0.584825
v 0.999985 0.015000 0.584825
v -0.880935 0.104635 0.480744
v -0.850015 0.651866 0.540694
v -0.850015 0.150000 0.540694
v -0.940884 0.651866 0.449825
v -0.940884 0.150000 0.449825
v -0.880935 0.786866 0.480744
v -0.895935 0.801866 0.495744
v -0.865015 0.666866 0.599825
v -0.850015 0.651866 0.584825
v -0.850015 0.150000 0.584825
v -0.865015 0.135000 0.599825
v -1.000015 0.666866 0.464825
v -0.985015 0.651866 0.449825
v -1.000015 0.135000 0.464825
v -0.985015 0.150000 0.449825
v -0.985015 0.801866 0.584825
v -0.985015 0.786866 0.599825
v -1.000015 0.786866 0.584825
v -0.985015 0.015000 0.599825
v -0.985015 0.000000 0.584825
v -1.000015 0.015000 0.584825
v 0.880905 0.104635 -1.281095
v 0.849985 0.651866 -1.341045
v 0.849985 0.150000 -1.341045
v 0.940854 0.651866 -1.250175
v 0.940854 0.150000 -1.250175
v 0.880905 0.786866 -1.281095
v 0.895905 0.801866 -1.296095
v 0.864985 0.666866 -1.400175
v 0.849985 0.651866 -1.385175
v 0.849985 0.150000 -1.385175
v 0.864985 0.135000 -1.400175
v 0.999985 0.666866 -1.265175
v 0.984985 0.651866 -1.250175
v 0.999985 0.135000 -1.265175
v 0.984985 0.150000 -1.250175
v 0.984985 0.801866 -1.385175
v 0.984985 0.786866 -1.400175
v 0.999985 0.786866 -1.385175
v 0.984985 0.015000 -1.400175
v 0.984985 -0.000000 -1.385175
v 0.999985 0.015000 -1.385175
v -0.880935 0.104635 -1.281095
v -0.850015 0.651866 -1.341045
v -0.850015 0.150000 -1.341045
v -0.940884 0.651866 -1.250175
v -0.940884 0.150000 -1.250175
v -0.880935 0.786866 -1.281095
v -0.895935 0.801866 -1.296095
v -0.865015 0.666866 -1.400175
v -0.850015 0.651866 -1.385175
v -0.850015 0.150000 -1.385175
v -0.865015 0.135000 -1.400175
v -1.000015 0.666866 -1.265175
v -0.985015 0.651866 -1.250175
v -1.000015 0.135000 -1.265175
v -0.985015 0.150000 -1.250175
v -0.985015 0.801866 -1.385175
v -0.985015 0.786866 -1.400175
v -1.000015 0.786866 -1.385175
v -0.985015 0.015000 -1.400175
v -0.985015 -0.000000 -1.385175
v -1.000015 0.015000 -1.385175
vn -0.0000 1.0000 -0.0000
vn -0.0000 -0.0000 1.0000
vn -0.0000 -0.0000 -1.0000
vn 1.0000 -0.0000 -0.0000
vn -0.0000 -1.0000 -0.0000
vn -1.0000 -0.0000 -0.0000
vn 0.7071 0.7071 -0.0000
vn 0.5773 0.5774 0.5774
vn 0.5774 -0.5774 0.5773
vn -0.0000 -0.7071 0.7071
vn 0.7071 -0.0000 0.7071
vn -0.7071 0.7071 -0.0000
vn 0.7071 -0.7071 -0.0000
vn -0.0000 0.7071 0.7071
vn -0.0000 0.7071 -0.7071
vn -0.7071 -0.0000 0.7071
vn 0.7071 -0.0000 -0.7071
vn -0.5773 0.5774 0.5774
vn -0.5773 -0.5773 0.5774
vn -0.7071 -0.7071 -0.0000
vn -0.7071 -0.0000 -0.7071
vn -0.0000 -0.7071 -0.7071
vn 0.5773 0.5774 -0.5774
vn 0.5774 -0.5773 -0.5774
vn -0.5773 0.5773 -0.5774
vn -0.5774 -0.5773 -0.5774
vt 0.145403 0.799402
vt 0.051717 0.780298
vt 0.014901 0.780298
vt 0.981151 0.296723
vt 0.944335 0.296723
vt 0.145403 0.849449
vt 0.095357 0.799402
vt 0.647746 0.403626
vt 0.093800 0.800502
vt 0.144303 0.851005
vt 0.572577 0.328044
vt 0.630852 0.405687
vt 0.054954 0.780298
vt 0.051717 0.777061
vt 0.629176 0.407375
vt 0.011664 0.780298
vt 0.014901 0.777061
vt 0.591450 0.407213
vt 0.589847 0.405653
vt 0.570236 0.345100
vt 0.981151 0.299960
vt 0.984388 0.296723
vt 0.568689 0.346732
vt 0.570564 0.386181
vt 0.944335 0.299960
vt 0.941098 0.296723
vt 0.568857 0.384528
vt 0.641180 0.396168
vt 0.641328 0.396992
vt 0.579235 0.334483
vt 0.639774 0.396967
vt 0.579262 0.336043
vt 0.639785 0.395350
vt 0.580945 0.396545
vt 0.579550 0.395727
vt 0.579388 0.396545
vt 0.580956 0.394928
vt 0.579388 0.394988
vt 0.274648 0.799402
vt 0.051717 0.905006
vt 0.014901 0.905006
vt 0.633851 0.860391
vt 0.597035 0.860391
vt 0.274648 0.849449
vt 0.324695 0.799402
vt 0.645574 0.534894
vt 0.275748 0.851005
vt 0.326251 0.800502
vt 0.573331 0.608586
vt 0.629104 0.532840
vt 0.054954 0.905006
vt 0.051717 0.908243
vt 0.627607 0.531223
vt 0.011664 0.905006
vt 0.014901 0.908243
vt 0.590952 0.531033
vt 0.589477 0.532494
vt 0.570881 0.591616
vt 0.637088 0.860391
vt 0.633851 0.857154
vt 0.569386 0.590139
vt 0.570895 0.551210
vt 0.597035 0.857154
vt 0.593798 0.860391
vt 0.569220 0.552863
vt 0.638940 0.541312
vt 0.580687 0.601843
vt 0.579881 0.602035
vt 0.637386 0.541287
vt 0.581468 0.600461
vt 0.579881 0.600475
vt 0.580947 0.541162
vt 0.580977 0.542706
vt 0.580172 0.541338
vt 0.579390 0.541162
vt 0.579390 0.542719
vt 0.145403 0.670158
vt 0.663653 0.860391
vt 0.700468 0.860391
vt 0.981151 0.172015
vt 0.944335 0.172015
vt 0.095356 0.670157
vt 0.145403 0.620111
vt 0.093800 0.669057
vt 0.440842 0.330251
vt 0.367477 0.403565
vt 0.144303 0.618554
vt 0.384035 0.405518
vt 0.660415 0.860391
vt 0.663653 0.857154
vt 0.385686 0.407189
vt 0.703706 0.860391
vt 0.700468 0.857154
vt 0.422896 0.407024
vt 0.424370 0.405531
vt 0.443197 0.346877
vt 0.984388 0.172015
vt 0.981151 0.168777
vt 0.444674 0.348330
vt 0.443157 0.386567
vt 0.941098 0.172015
vt 0.944335 0.168777
vt 0.444764 0.385042
vt 0.434403 0.336910
vt 0.433644 0.337129
vt 0.374005 0.397037
vt 0.432876 0.338479
vt 0.375560 0.397037
vt 0.434429 0.338470
vt 0.433214 0.396548
vt 0.433218 0.395000
vt 0.434771 0.396548
vt 0.434002 0.396340
vt 0.434771 0.394990
vt 0.274648 0.670157
vt 0.663653 0.985099
vt 0.700468 0.985099
vt 0.633851 0.985099
vt 0.597035 0.985099
vt 0.324695 0.670157
vt 0.274648 0.620111
vt 0.326251 0.669057
vt 0.441561 0.608590
vt 0.367477 0.534871
vt 0.275748 0.618554
vt 0.384290 0.532700
vt 0.660415 0.985099
vt 0.663653 0.988336
vt 0.385812 0.531065
vt 0.703706 0.985099
vt 0.700468 0.988336
vt 0.423018 0.530846
vt 0.424621 0.532374
vt 0.443815 0.591869
vt 0.637088 0.985099
vt 0.633851 0.988336
vt 0.445346 0.590263
vt 0.443488 0.551467
vt 0.593798 0.985099
vt 0.597035 0.988336
vt 0.445126 0.552991
vt 0.435009 0.602040
vt 0.374005 0.541399
vt 0.374191 0.542197
vt 0.375560 0.541399
vt 0.435009 0.600480
vt 0.375566 0.542983
vt 0.433216 0.541164
vt 0.434773 0.541164
vt 0.434592 0.541951
vt 0.434773 0.542721
vt 0.433223 0.542749
s 0
usemtl Kitchen_Cabins.008
f 28/46/1 37/66/1 16/29/1 7/8/1
f 32/57/2 40/72/2 19/34/2 11/19/2
f 1/1/3 22/39/3 27/44/3 6/6/3
f 3/3/1 24/41/1 31/54/1 10/16/1
f 17/31/2 38/69/2 29/50/2 8/12/2
f 21/38/4 63/114/4 56/100/4 14/24/4
f 30/51/5 23/40/5 2/2/5 9/13/5
f 54/96/4 60/109/4 18/32/4 12/20/4
f 10/17/6 9/14/6 2/2/6 3/3/6
f 13/21/3 15/25/3 5/5/3 4/4/3
f 14/24/4 12/20/4 18/32/4 21/38/4
f 18/32/7 60/109/7 58/104/7 16/30/7
f 5/5/4 47/81/4 46/80/4 4/4/4
f 4/4/5 46/80/5 55/97/5 13/22/5
f 8/12/2 11/19/2 19/34/2 17/31/2
f 57/101/1 47/81/1 5/5/1 15/26/1
f 16/28/8 17/31/8 18/33/8
f 19/34/9 20/35/9 21/37/9
f 19/34/10 40/72/10 41/75/10 20/36/10
f 17/31/11 19/34/11 21/37/11 18/33/11
f 7/9/12 49/84/12 48/82/12 6/7/12
f 62/112/13 63/114/13 21/38/13 20/36/13
f 37/66/14 38/69/14 17/31/14 16/29/14
f 27/44/15 28/47/15 7/10/15 6/6/15
f 10/18/14 31/56/14 32/57/14 11/19/14
f 9/15/16 10/18/16 11/19/16 8/12/16
f 29/50/10 30/53/10 9/15/10 8/12/10
f 13/23/13 55/99/13 54/96/13 12/20/13
f 56/100/7 57/103/7 15/27/7 14/24/7
f 12/20/17 14/24/17 15/27/17 13/23/17
f 48/82/6 43/77/6 1/1/6 6/7/6
f 16/30/1 58/104/1 49/85/1 7/11/1
f 34/59/5 76/135/5 67/118/5 25/42/5
f 2/2/2 23/40/2 24/41/2 3/3/2
f 35/62/6 77/138/6 84/151/6 42/76/6
f 75/134/6 33/58/6 39/71/6 81/146/6
f 31/55/4 24/41/4 23/40/4 30/52/4
f 34/60/3 25/42/3 26/43/3 36/63/3
f 35/62/6 42/76/6 39/71/6 33/58/6
f 37/68/12 79/142/12 81/146/12 39/71/12
f 29/50/2 38/69/2 40/72/2 32/57/2
f 20/36/5 41/75/5 83/149/5 62/112/5
f 78/139/1 36/64/1 26/43/1 68/119/1
f 37/67/18 39/71/18 38/70/18
f 40/73/19 42/76/19 41/74/19
f 27/45/7 69/120/7 70/122/7 28/48/7
f 38/70/16 39/71/16 42/76/16 40/73/16
f 83/149/20 41/75/20 42/76/20 84/151/20
f 33/58/20 75/134/20 76/137/20 34/61/20
f 30/53/11 29/50/11 32/57/11 31/56/11
f 77/138/12 35/62/12 36/65/12 78/141/12
f 33/58/21 34/61/21 36/65/21 35/62/21
f 69/120/4 27/45/4 22/39/4 64/115/4
f 28/49/1 70/123/1 79/142/1 37/68/1
f 70/124/1 49/86/1 58/106/1 79/143/1
f 74/133/3 53/95/3 61/110/3 82/148/3
f 52/92/1 73/130/1 66/117/1 45/79/1
f 1/1/1 43/77/1 64/115/1 22/39/1
f 50/88/3 71/126/3 80/145/3 59/108/3
f 72/127/5 51/89/5 44/78/5 65/116/5
f 52/93/6 45/79/6 44/78/6 51/90/6
f 55/98/2 46/80/2 47/81/2 57/102/2
f 56/100/4 63/114/4 60/109/4 54/96/4
f 62/112/22 83/149/22 82/148/22 61/110/22
f 50/88/3 59/108/3 61/110/3 53/95/3
f 58/105/23 60/109/23 59/107/23
f 61/111/24 63/114/24 62/113/24
f 59/107/17 60/109/17 63/114/17 61/111/17
f 79/143/15 58/106/15 59/108/15 80/145/15
f 69/121/14 48/83/14 49/87/14 70/125/14
f 53/95/15 74/133/15 73/132/15 52/94/15
f 51/91/21 50/88/21 53/95/21 52/94/21
f 71/126/22 50/88/22 51/91/22 72/129/22
f 48/83/2 69/121/2 64/115/2 43/77/2
f 54/96/11 55/99/11 57/103/11 56/100/11
f 25/42/6 67/118/6 68/119/6 26/43/6
f 45/79/3 66/117/3 65/116/3 44/78/3
f 73/131/4 72/128/4 65/116/4 66/117/4
f 76/136/2 78/140/2 68/119/2 67/118/2
f 77/138/6 75/134/6 81/146/6 84/151/6
f 71/126/3 74/133/3 82/148/3 80/145/3
f 79/144/25 80/145/25 81/147/25
f 82/148/26 83/150/26 84/152/26
f 80/145/21 82/148/21 84/152/21 81/147/21
f 72/129/17 73/132/17 74/133/17 71/126/17
f 75/134/16 77/138/16 78/141/16 76/137/16
o Ingredients_Box_Lid
v -0.998790 0.821135 0.583599
v -0.983790 0.806135 0.583599
v -0.983790 0.821135 0.598599
v -0.998790 0.821135 -1.383951
v -0.983790 0.821135 -1.398951
v -0.983790 0.806135 -1.383951
v 0.983760 0.821135 -1.398951
v 0.998760 0.821135 -1.383951
v 0.983760 0.806135 -1.383951
v 0.998760 0.821135 0.583599
v 0.983760 0.821135 0.598599
v 0.983760 0.806135 0.583599
v -0.998790 0.891054 0.583599
v -0.983790 0.891054 0.598599
v -0.998790 0.891054 -1.383951
v -0.983790 0.891054 -1.398951
v 0.983760 0.891054 -1.398951
v 0.998760 0.891054 -1.383951
v 0.998760 0.891054 0.583599
v 0.983760 0.891054 0.598599
v -0.983790 0.906054 0.583599
v -0.983790 0.906054 -1.383951
v 0.983760 0.906054 -1.383951
v 0.983760 0.906054 0.583599
v -0.752085 0.867373 0.351894
v -0.752085 0.867373 -1.152245
v 0.752054 0.867373 -1.152245
v 0.752054 0.867373 0.351894
v -0.767085 0.906054 0.366894
v -0.752085 0.891054 0.351894
v -0.752085 0.891054 -1.152245
v -0.767085 0.906054 -1.167245
v 0.752054 0.891054 -1.152245
v 0.767054 0.906054 -1.167245
v 0.752054 0.891054 0.351894
v 0.767054 0.906054 0.366894
vn -0.0000 -0.0000 1.0000
vn 1.0000 -0.0000 -0.0000
vn -0.0000 -1.0000 -0.0000
vn -0.0000 -0.0000 -1.0000
vn -0.5774 -0.5773 0.5774
vn -0.5774 -0.5773 -0.5774
vn 0.5774 -0.5773 -0.5773
vn 0.5774 -0.5773 0.5773
vn -0.5774 0.5773 0.5773
vn -0.5774 0.5774 -0.5774
vn 0.5774 0.5774 -0.5774
vn 0.5774 0.5773 0.5773
vn -0.7071 -0.7071 -0.0000
vn -0.0000 -0.7071 -0.7071
vn 0.7071 -0.7071 -0.0000
vn -0.0000 -0.7071 0.7071
vn -0.7071 0.7071 -0.0000
vn -0.0000 0.7071 -0.7071
vn 0.7071 0.7071 -0.0000
vn -0.0000 0.7071 0.7071
vn -0.7071 -0.0000 -0.7071
vn 0.7071 -0.0000 -0.7071
vn 0.7071 -0.0000 0.7071
vn -0.7071 -0.0000 0.7071
vn -1.0000 -0.0000 -0.0000
vn -0.0000 1.0000 -0.0000
vt 0.119676 0.155998
vt 0.817291 0.944094
vt 0.121024 0.156776
vt 0.121232 0.155998
vt 0.121232 0.157554
vt 0.119676 0.157554
vt 0.119676 0.595227
vt 0.119676 0.011664
vt 0.119676 0.593671
vt 0.817291 0.799759
vt 0.121024 0.594449
vt 0.121232 0.011664
vt 0.121232 0.593671
vt 0.119676 0.449336
vt 0.119676 0.447780
vt 0.961626 0.799759
vt 0.121024 0.448558
vt 0.121232 0.449336
vt 0.121232 0.447780
vt 0.119676 0.303445
vt 0.119676 0.301889
vt 0.961626 0.944094
vt 0.121024 0.302667
vt 0.121232 0.303445
vt 0.121232 0.301889
vt 0.114547 0.155998
vt 0.114547 0.157554
vt 0.114547 0.595227
vt 0.114547 0.011664
vt 0.114547 0.593671
vt 0.114547 0.449336
vt 0.114547 0.447780
vt 0.114547 0.303445
vt 0.114547 0.301889
vt 0.113199 0.156776
vt 0.112991 0.155998
vt 0.112991 0.157554
vt 0.113199 0.594449
vt 0.112991 0.011664
vt 0.112991 0.593671
vt 0.113199 0.448558
vt 0.112991 0.447780
vt 0.112991 0.449336
vt 0.113199 0.302667
vt 0.112991 0.303445
vt 0.112991 0.301889
vt 0.093800 0.174552
vt 0.826961 0.495885
vt 0.093800 0.139001
vt 0.093800 0.576674
vt 0.826961 0.606225
vt 0.093800 0.028661
vt 0.093800 0.430783
vt 0.093800 0.466334
vt 0.937301 0.606225
vt 0.093800 0.284892
vt 0.093800 0.320443
vt 0.937301 0.495885
vt 0.097094 0.140101
vt 0.097094 0.173451
vt 0.095538 0.174552
vt 0.095538 0.139001
vt 0.095538 0.576674
vt 0.095538 0.028661
vt 0.097094 0.027561
vt 0.097094 0.577774
vt 0.095538 0.466334
vt 0.095538 0.430783
vt 0.097094 0.465233
vt 0.097094 0.431883
vt 0.095538 0.320443
vt 0.095538 0.284892
vt 0.097094 0.319342
vt 0.097094 0.285992
s 0
usemtl Kitchen_Cabins.008
f 87/158/27 95/173/27 104/186/27 98/179/27
f 94/172/28 92/167/28 102/184/28 103/185/28
f 93/168/29 96/174/29 86/154/29 90/162/29
f 91/166/30 89/161/30 100/182/30 101/183/30
f 85/153/31 86/155/31 87/158/31
f 88/159/32 89/161/32 90/163/32
f 91/166/33 92/167/33 93/169/33
f 94/172/34 95/173/34 96/175/34
f 97/178/35 98/179/35 105/187/35
f 99/180/36 106/190/36 100/182/36
f 101/183/37 107/193/37 102/184/37
f 103/185/38 108/196/38 104/186/38
f 85/153/39 88/160/39 90/164/39 86/156/39
f 89/161/40 91/166/40 93/170/40 90/165/40
f 92/167/41 94/172/41 96/176/41 93/171/41
f 95/173/42 87/158/42 86/157/42 96/177/42
f 105/188/43 106/191/43 99/181/43 97/178/43
f 106/192/44 107/195/44 101/183/44 100/182/44
f 107/194/45 108/197/45 103/185/45 102/184/45
f 108/198/46 105/189/46 98/179/46 104/186/46
f 88/159/47 99/180/47 100/182/47 89/161/47
f 102/184/48 92/167/48 91/166/48 101/183/48
f 104/186/49 95/173/49 94/172/49 103/185/49
f 87/158/50 98/179/50 97/178/50 85/153/50
f 88/160/51 85/153/51 97/178/51 99/181/51
f 114/213/30 119/224/30 112/208/30 109/199/30
f 118/222/52 120/225/52 108/197/52 107/194/52
f 119/223/51 117/220/51 111/205/51 112/209/51
f 117/219/27 115/215/27 110/202/27 111/206/27
f 111/207/52 110/203/52 109/200/52 112/210/52
f 113/211/52 116/217/52 106/191/52 105/188/52
f 120/226/52 113/212/52 105/189/52 108/198/52
f 116/218/52 118/221/52 107/195/52 106/192/52
f 114/214/45 115/216/45 116/217/45 113/211/45
f 115/215/46 117/219/46 118/221/46 116/218/46
f 117/220/43 119/223/43 120/225/43 118/222/43
f 119/224/44 114/213/44 113/212/44 120/226/44
f 115/216/28 114/214/28 109/201/28 110/204/28
