# Blender 3.5.1
# www.blender.org
mtllib PlateTable.mtl
o Kitchen_Cabin
v 0.884739 0.000000 0.879632
v 0.899739 0.015000 0.879632
v 0.884739 0.015000 0.894632
v 0.899739 0.705985 0.879632
v 0.884739 0.705985 0.894632
v 0.984618 1.000000 0.979511
v 0.984618 0.985000 0.994511
v 0.999618 0.985000 0.979511
v 0.984618 0.720985 0.994511
v 0.984618 0.705985 0.979511
v 0.999618 0.720985 0.979511
v 0.464739 0.000000 0.879632
v 0.467196 0.015000 0.894632
v 0.449739 0.015000 0.879632
v 0.467295 0.438146 0.894632
v 0.449739 0.427273 0.879632
v -0.885261 0.000000 0.879632
v -0.900261 0.015000 0.879632
v -0.885261 0.015000 0.894632
v -0.900261 0.705985 0.879632
v -0.885261 0.705985 0.894632
v -0.985140 1.000000 0.979511
v -0.985140 0.985000 0.994511
v -1.000140 0.985000 0.979511
v -0.985140 0.720985 0.994511
v -0.985140 0.705985 0.979511
v -1.000140 0.720985 0.979511
v -0.465261 0.000000 0.879632
v -0.467719 0.015000 0.894632
v -0.450261 0.015000 0.879632
v -0.467817 0.438146 0.894632
v -0.450261 0.427273 0.879632
v 0.884739 -0.000000 -0.890368
v 0.899739 0.015000 -0.890368
v 0.884739 0.015000 -0.905368
v 0.899739 0.705985 -0.890368
v 0.884739 0.705985 -0.905368
v 0.984618 1.000000 -0.990247
v 0.984618 0.985000 -1.005247
v 0.999618 0.985000 -0.990247
v 0.984618 0.720985 -1.005247
v 0.984618 0.705985 -0.990247
v 0.999618 0.720985 -0.990247
v 0.464739 -0.000000 -0.890368
v 0.467196 0.015000 -0.905368
v 0.449739 0.015000 -0.890368
v 0.467295 0.438146 -0.905368
v 0.449739 0.427273 -0.890368
v -0.885261 -0.000000 -0.890368
v -0.900261 0.015000 -0.890368
v -0.885261 0.015000 -0.905368
v -0.900261 0.705985 -0.890368
v -0.885261 0.705985 -0.905368
v -0.985140 1.000000 -0.990247
v -0.985140 0.985000 -1.005247
v -1.000140 0.985000 -0.990247
v -0.985140 0.720985 -1.005247
v -0.985140 0.705985 -0.990247
v -1.000140 0.720985 -0.990247
v -0.465261 -0.000000 -0.890368
v -0.467719 0.015000 -0.905368
v -0.450261 0.015000 -0.890368
v -0.467817 0.438146 -0.905368
v -0.450261 0.427273 -0.890368
vn -0.0000 -0.0000 1.0000
vn -1.0000 -0.0000 -0.0000
vn -0.0000 -1.0000 -0.0000
vn 0.7071 0.7071 -0.0000
vn 0.5773 -0.5774 0.5774
vn 0.5773 0.5774 0.5773
vn 0.5773 -0.5774 0.5773
vn -0.5460 -0.5460 0.6354
vn -0.0000 -0.7071 0.7071
vn 0.7071 -0.7071 -0.0000
vn 0.7071 -0.0000 0.7071
vn -0.7071 -0.7071 -0.0000
vn -0.6507 0.0001 0.7594
vn -0.0000 0.7071 0.7071
vn -0.0000 -0.8097 0.5869
vn 1.0000 -0.0000 -0.0000
vn -0.0000 1.0000 -0.0000
vn -0.0000 0.7071 -0.7071
vn -0.5773 -0.5774 0.5773
vn -0.5774 0.5774 0.5773
vn -0.5774 -0.5774 0.5774
vn 0.5460 -0.5460 0.6355
vn -0.7071 -0.0000 0.7071
vn 0.6507 0.0001 0.7594
vn -0.0000 -0.0000 -1.0000
vn 0.5774 -0.5774 -0.5773
vn 0.5773 0.5774 -0.5774
vn 0.5773 -0.5774 -0.5774
vn -0.5460 -0.5460 -0.6354
vn -0.0000 -0.7071 -0.7071
vn 0.7071 -0.0000 -0.7071
vn -0.6507 0.0001 -0.7594
vn -0.0000 -0.8097 -0.5869
vn -0.7071 0.7071 -0.0000
vn -0.5773 -0.5774 -0.5773
vn -0.5773 0.5774 -0.5774
vn -0.5773 -0.5774 -0.5774
vn 0.5460 -0.5460 -0.6355
vn -0.7071 -0.0000 -0.7071
vn 0.6507 0.0001 -0.7594
vt 0.672432 0.519285
vt 0.220340 0.142285
vt 0.220132 0.143063
vt 0.220132 0.141507
vt 0.221688 0.141507
vt 0.221688 0.143063
vt 0.570471 0.669343
vt 0.535851 0.631917
vt 0.272377 0.141507
vt 0.534741 0.633008
vt 0.272377 0.143063
vt 0.542607 0.661573
vt 0.541827 0.661775
vt 0.541840 0.660219
vt 0.543396 0.660232
vt 0.543383 0.661788
vt 0.542003 0.640852
vt 0.542792 0.639511
vt 0.564306 0.661964
vt 0.542016 0.639296
vt 0.543559 0.640865
vt 0.562750 0.661951
vt 0.220374 0.174547
vt 0.220132 0.173873
vt 0.672432 0.488475
vt 0.221688 0.173693
vt 0.672432 0.486919
vt 0.221688 0.175381
vt 0.671073 0.457963
vt 0.252729 0.173686
vt 0.251931 0.175380
vt 0.672432 0.456675
vt 0.672432 0.328044
vt 0.220340 0.273684
vt 0.220132 0.272906
vt 0.220132 0.274462
vt 0.221688 0.274462
vt 0.221688 0.272906
vt 0.368568 0.667646
vt 0.272377 0.274462
vt 0.404903 0.631917
vt 0.367477 0.666537
vt 0.272377 0.272906
vt 0.396559 0.660346
vt 0.397335 0.660561
vt 0.397348 0.659005
vt 0.395792 0.658992
vt 0.395779 0.660548
vt 0.397511 0.639638
vt 0.397524 0.638082
vt 0.396744 0.638284
vt 0.374856 0.660372
vt 0.395955 0.639625
vt 0.376412 0.660385
vt 0.220374 0.241422
vt 0.220132 0.242096
vt 0.672432 0.358854
vt 0.221688 0.242276
vt 0.672432 0.360410
vt 0.221688 0.240588
vt 0.671073 0.389366
vt 0.252729 0.242283
vt 0.672432 0.390653
vt 0.251931 0.240589
vt 0.802275 0.519285
vt 0.220132 0.011664
vt 0.220340 0.536482
vt 0.220132 0.535704
vt 0.221688 0.011664
vt 0.221688 0.537260
vt 0.221688 0.535704
vt 0.569380 0.799182
vt 0.272377 0.011664
vt 0.534136 0.836020
vt 0.272377 0.537260
vt 0.533045 0.834911
vt 0.272377 0.535704
vt 0.540613 0.806267
vt 0.540815 0.807047
vt 0.540600 0.807823
vt 0.542156 0.807836
vt 0.542169 0.806280
vt 0.561523 0.807999
vt 0.540437 0.827190
vt 0.563092 0.806456
vt 0.562877 0.807232
vt 0.540424 0.828746
vt 0.561536 0.806443
vt 0.802275 0.488475
vt 0.220374 0.504220
vt 0.220132 0.504894
vt 0.221688 0.505074
vt 0.802275 0.486919
vt 0.221688 0.503386
vt 0.803634 0.457963
vt 0.252729 0.505081
vt 0.251931 0.503388
vt 0.802275 0.456675
vt 0.802275 0.328044
vt 0.220132 0.404305
vt 0.220340 0.405083
vt 0.220132 0.405861
vt 0.221688 0.404305
vt 0.221688 0.405861
vt 0.367477 0.797485
vt 0.402097 0.834911
vt 0.272377 0.404305
vt 0.403206 0.833820
vt 0.272377 0.405861
vt 0.396121 0.805053
vt 0.395341 0.805255
vt 0.396108 0.806609
vt 0.394565 0.805040
vt 0.394552 0.806596
vt 0.395945 0.825976
vt 0.373642 0.804864
vt 0.395932 0.827532
vt 0.395156 0.827317
vt 0.375198 0.804877
vt 0.394389 0.825963
vt 0.802275 0.358854
vt 0.220374 0.437345
vt 0.220132 0.436671
vt 0.221688 0.436491
vt 0.802275 0.360410
vt 0.221688 0.438180
vt 0.803634 0.389366
vt 0.252729 0.436484
vt 0.802275 0.390653
vt 0.251931 0.438178
s 0
usemtl Kitchen_Cabins.005
f 31/62/1 15/30/1 5/11/1 21/43/1
f 48/98/2 46/93/2 14/27/2 16/32/2
f 23/46/1 25/49/1 9/17/1 7/14/1
f 12/25/3 44/89/3 33/65/3 1/1/3
f 8/16/4 40/82/4 38/78/4 6/13/4
f 10/20/3 26/50/3 21/41/3 5/10/3
f 42/85/3 10/19/3 4/7/3 36/72/3
f 1/2/5 2/5/5 3/6/5
f 5/10/3 4/8/3 10/20/3
f 6/12/6 7/14/6 8/15/6
f 9/17/7 10/18/7 11/21/7
f 12/23/8 13/26/8 14/28/8
f 12/24/9 1/3/9 3/6/9 13/26/9
f 10/19/10 42/85/10 43/88/10 11/22/10
f 7/14/11 9/17/11 11/21/11 8/15/11
f 14/27/12 46/93/12 44/89/12 12/25/12
f 16/31/13 14/28/13 13/26/13 15/30/13
f 22/45/14 23/46/14 7/14/14 6/13/14
f 5/11/11 3/6/11 2/5/11 4/9/11
f 25/49/9 26/50/9 10/20/9 9/17/9
f 31/61/15 32/63/15 16/32/15 15/29/15
f 33/66/10 34/69/10 2/5/10 1/4/10
f 2/5/16 34/69/16 36/73/16 4/9/16
f 3/6/1 5/11/1 15/30/1 13/26/1
f 6/13/17 38/78/17 54/110/17 22/45/17
f 64/129/16 32/63/16 30/59/16 62/125/16
f 11/22/16 43/88/16 40/82/16 8/16/16
f 17/33/3 49/99/3 60/121/3 28/57/3
f 48/98/3 16/32/3 32/63/3 64/129/3
f 54/110/18 38/78/18 39/80/18 55/112/18
f 58/116/3 52/105/3 20/39/3 26/52/3
f 17/34/19 19/38/19 18/37/19
f 21/42/3 26/52/3 20/39/3
f 22/44/20 24/47/20 23/46/20
f 25/49/21 27/53/21 26/51/21
f 28/55/22 30/60/22 29/58/22
f 28/56/9 29/58/9 19/38/9 17/35/9
f 27/54/12 59/119/12 58/116/12 26/52/12
f 23/46/23 24/47/23 27/53/23 25/49/23
f 28/57/10 60/121/10 62/125/10 30/59/10
f 32/64/24 31/62/24 29/58/24 30/60/24
f 49/100/12 17/36/12 18/37/12 50/103/12
f 21/43/23 20/40/23 18/37/23 19/38/23
f 20/40/2 52/107/2 50/103/2 18/37/2
f 19/38/1 29/58/1 31/62/1 21/43/1
f 37/76/3 53/108/3 58/117/3 42/87/3
f 55/112/25 39/80/25 41/84/25 57/115/25
f 33/67/26 35/71/26 34/70/26
f 37/76/3 42/87/3 36/74/3
f 38/79/27 40/82/27 39/81/27
f 41/83/28 43/88/28 42/86/28
f 44/90/29 46/94/29 45/92/29
f 44/91/30 45/92/30 35/71/30 33/68/30
f 39/81/31 40/82/31 43/88/31 41/83/31
f 48/97/32 47/96/32 45/92/32 46/94/32
f 37/77/31 36/75/31 34/70/31 35/71/31
f 57/115/30 41/84/30 42/87/30 58/117/30
f 63/127/33 47/95/33 48/98/33 64/129/33
f 63/128/25 53/109/25 37/77/25 47/96/25
f 35/71/25 45/92/25 47/96/25 37/77/25
f 24/48/2 56/113/2 59/119/2 27/54/2
f 22/45/34 54/110/34 56/113/34 24/48/34
f 49/101/35 50/103/35 51/104/35
f 53/108/3 52/106/3 58/117/3
f 54/111/36 55/112/36 56/114/36
f 57/115/37 58/118/37 59/120/37
f 60/122/38 61/124/38 62/126/38
f 60/123/30 49/102/30 51/104/30 61/124/30
f 55/112/39 57/115/39 59/120/39 56/114/39
f 64/130/40 62/126/40 61/124/40 63/128/40
f 53/109/39 51/104/39 50/103/39 52/107/39
f 51/104/25 53/109/25 63/128/25 61/124/25
