# Blender 3.5.1
# www.blender.org
mtllib Plate2.mtl
o Plate
v 0.181854 0.698712 -0.486385
v 0.306874 0.698712 -0.469926
v 0.423373 0.698712 -0.421670
v 0.523414 0.698712 -0.344906
v 0.600177 0.698712 -0.244866
v 0.648433 0.698712 -0.128367
v 0.664892 0.698712 -0.003347
v 0.648433 0.698712 0.121672
v 0.600177 0.698712 0.238171
v 0.523414 0.698712 0.338212
v 0.423373 0.698712 0.414976
v 0.306874 0.698712 0.463231
v 0.181854 0.698712 0.479690
v 0.056835 0.698712 0.463231
v -0.059665 0.698712 0.414976
v -0.159705 0.698712 0.338212
v -0.236468 0.698712 0.238171
v -0.284724 0.698712 0.121672
v -0.301184 0.698712 -0.003347
v -0.284724 0.698712 -0.128367
v -0.236468 0.698712 -0.244866
v -0.159705 0.698712 -0.344906
v -0.059665 0.698712 -0.421670
v 0.056835 0.698712 -0.469926
v 0.181854 0.701210 -0.003347
v 0.181854 0.734531 -0.522974
v 0.316344 0.734531 -0.505268
v 0.441667 0.734531 -0.453357
v 0.549286 0.734531 -0.370779
v 0.631864 0.734531 -0.263161
v 0.683775 0.734531 -0.137837
v 0.701481 0.734531 -0.003347
v 0.683775 0.734531 0.131142
v 0.631864 0.734531 0.256466
v 0.549286 0.734531 0.364085
v 0.441667 0.734532 0.446663
v 0.316344 0.734532 0.498574
v 0.181854 0.734532 0.516280
v 0.047365 0.734532 0.498574
v -0.077959 0.734532 0.446663
v -0.185576 0.734531 0.364085
v -0.268156 0.734531 0.256466
v -0.320066 0.734531 0.131142
v -0.337772 0.734531 -0.003347
v -0.320066 0.734531 -0.137837
v -0.268156 0.734531 -0.263161
v -0.185576 0.734531 -0.370779
v -0.077959 0.734531 -0.453357
v 0.047365 0.734531 -0.505268
v 0.181854 0.782631 -0.747628
v 0.374488 0.782631 -0.722267
v 0.553995 0.782631 -0.647913
v 0.708140 0.782631 -0.529633
v 0.826420 0.782631 -0.375488
v 0.900774 0.782631 -0.195981
v 0.926135 0.782631 -0.003347
v 0.900774 0.782631 0.189287
v 0.826420 0.782632 0.368793
v 0.708140 0.782632 0.522939
v 0.553995 0.782632 0.641219
v 0.374488 0.782632 0.715573
v 0.181854 0.782632 0.740934
v -0.010778 0.782632 0.715573
v -0.190287 0.782632 0.641219
v -0.344432 0.782632 0.522939
v -0.462712 0.782632 0.368793
v -0.537066 0.782631 0.189287
v -0.562427 0.782631 -0.003347
v -0.537066 0.782631 -0.195981
v -0.462712 0.782631 -0.375488
v -0.344432 0.782631 -0.529633
v -0.190287 0.782631 -0.647913
v -0.010778 0.782631 -0.722267
v 0.181854 0.683477 -0.515821
v 0.314492 0.683477 -0.498359
v 0.438091 0.683477 -0.447163
v 0.544228 0.683477 -0.365721
v 0.625670 0.683477 -0.259584
v 0.676866 0.683477 -0.135985
v 0.694328 0.683477 -0.003347
v 0.676866 0.683477 0.129291
v 0.625670 0.683477 0.252890
v 0.544228 0.683477 0.359027
v 0.438091 0.683478 0.440468
v 0.314492 0.683478 0.491665
v 0.181854 0.683478 0.509127
v 0.049216 0.683478 0.491665
v -0.074383 0.683478 0.440468
v -0.180520 0.683477 0.359027
v -0.261961 0.683477 0.252890
v -0.313158 0.683477 0.129291
v -0.330620 0.683477 -0.003347
v -0.313158 0.683477 -0.135985
v -0.261961 0.683477 -0.259584
v -0.180520 0.683477 -0.365721
v -0.074383 0.683477 -0.447163
v 0.049216 0.683477 -0.498359
v 0.181854 0.673224 -0.003347
v 0.181854 0.721467 -0.555502
v 0.324762 0.721467 -0.536688
v 0.457931 0.721467 -0.481527
v 0.572287 0.721467 -0.393779
v 0.660034 0.721467 -0.279425
v 0.715195 0.721467 -0.146255
v 0.734009 0.721467 -0.003347
v 0.715195 0.721467 0.139561
v 0.660034 0.721467 0.272730
v 0.572287 0.721467 0.387085
v 0.457931 0.721467 0.474832
v 0.324762 0.721467 0.529993
v 0.181854 0.721467 0.548807
v 0.038946 0.721467 0.529993
v -0.094223 0.721467 0.474832
v -0.208578 0.721467 0.387085
v -0.296326 0.721467 0.272730
v -0.351486 0.721467 0.139561
v -0.370300 0.721467 -0.003347
v -0.351486 0.721467 -0.146255
v -0.296326 0.721467 -0.279425
v -0.208578 0.721467 -0.393779
v -0.094223 0.721467 -0.481527
v 0.038946 0.721467 -0.536688
v 0.181854 0.766436 -0.753934
v 0.376120 0.766436 -0.728358
v 0.557147 0.766436 -0.653374
v 0.712599 0.766436 -0.534092
v 0.831881 0.766436 -0.378641
v 0.906865 0.766436 -0.197613
v 0.932441 0.766436 -0.003347
v 0.906865 0.766436 0.190919
v 0.831881 0.766436 0.371946
v 0.712599 0.766436 0.527398
v 0.557147 0.766436 0.646680
v 0.376120 0.766436 0.721664
v 0.181854 0.766436 0.747239
v -0.012412 0.766436 0.721664
v -0.193439 0.766436 0.646680
v -0.348890 0.766436 0.527398
v -0.468173 0.766436 0.371946
v -0.543157 0.766436 0.190919
v -0.568732 0.766436 -0.003347
v -0.543157 0.766436 -0.197613
v -0.468173 0.766436 -0.378641
v -0.348890 0.766436 -0.534092
v -0.193439 0.766436 -0.653374
v -0.012412 0.766436 -0.728358
vn 0.0050 1.0000 -0.0013
vn 0.0045 1.0000 -0.0026
vn -0.0000 1.0000 -0.0000
vn 0.0026 1.0000 0.0045
vn 0.0037 1.0000 0.0037
vn -0.0037 1.0000 0.0037
vn -0.0026 1.0000 0.0045
vn -0.0045 1.0000 -0.0026
vn -0.0050 1.0000 -0.0013
vn 0.0037 1.0000 -0.0037
vn 0.0026 1.0000 -0.0045
vn 0.0045 1.0000 0.0026
vn 0.0050 1.0000 0.0013
vn -0.0013 1.0000 0.0050
vn -0.0000 1.0000 0.0052
vn -0.0052 1.0000 -0.0000
vn -0.0050 1.0000 0.0013
vn -0.0013 1.0000 -0.0050
vn -0.0026 1.0000 -0.0045
vn 0.0013 1.0000 -0.0050
vn -0.0000 1.0000 -0.0052
vn 0.0052 1.0000 -0.0000
vn 0.0013 1.0000 0.0050
vn -0.0045 1.0000 0.0026
vn -0.0037 1.0000 -0.0037
vn 0.6058 0.7146 0.3498
vn 0.4947 0.7146 0.4947
vn 0.1811 0.7146 -0.6757
vn 0.3498 0.7146 -0.6058
vn -0.6996 0.7146 -0.0000
vn -0.6757 0.7146 -0.1811
vn 0.3498 0.7146 0.6058
vn 0.4947 0.7146 -0.4947
vn -0.6058 0.7146 -0.3498
vn 0.1811 0.7146 0.6757
vn -0.0000 0.7146 0.6996
vn -0.1811 0.7146 0.6757
vn 0.6058 0.7146 -0.3498
vn -0.4947 0.7146 -0.4947
vn -0.3498 0.7146 0.6058
vn 0.6757 0.7146 -0.1811
vn -0.3498 0.7146 -0.6058
vn -0.4947 0.7146 0.4947
vn 0.6996 0.7146 -0.0000
vn -0.1811 0.7146 -0.6757
vn -0.6058 0.7146 0.3498
vn 0.6757 0.7146 0.1811
vn -0.0000 0.7146 -0.6995
vn -0.6757 0.7146 0.1811
vn -0.1480 0.9778 -0.1480
vn -0.1047 0.9778 -0.1813
vn -0.1047 0.9778 0.1813
vn -0.1480 0.9778 0.1480
vn 0.2022 0.9778 -0.0542
vn 0.2094 0.9778 -0.0000
vn -0.0542 0.9778 -0.2022
vn -0.1813 0.9778 0.1047
vn 0.2022 0.9778 0.0542
vn -0.0000 0.9778 -0.2094
vn -0.2022 0.9778 0.0542
vn 0.1813 0.9778 0.1047
vn 0.0542 0.9778 -0.2022
vn -0.2094 0.9778 -0.0000
vn 0.1480 0.9778 0.1480
vn 0.1047 0.9778 -0.1813
vn -0.2022 0.9778 -0.0542
vn 0.1047 0.9778 0.1813
vn 0.1480 0.9778 -0.1480
vn -0.1813 0.9778 -0.1047
vn 0.0542 0.9778 0.2022
vn -0.0000 0.9778 0.2094
vn -0.0542 0.9778 0.2022
vn 0.1813 0.9778 -0.1047
vn 0.0193 -0.9998 -0.0052
vn -0.0000 -1.0000 -0.0000
vn 0.0173 -0.9998 -0.0100
vn 0.0100 -0.9998 0.0173
vn 0.0141 -0.9998 0.0141
vn -0.0141 -0.9998 0.0141
vn -0.0100 -0.9998 0.0173
vn -0.0173 -0.9998 -0.0100
vn -0.0193 -0.9998 -0.0052
vn 0.0141 -0.9998 -0.0141
vn 0.0100 -0.9998 -0.0173
vn 0.0173 -0.9998 0.0100
vn 0.0193 -0.9998 0.0052
vn -0.0052 -0.9998 0.0193
vn -0.0000 -0.9998 0.0200
vn -0.0200 -0.9998 -0.0000
vn -0.0193 -0.9998 0.0052
vn -0.0052 -0.9998 -0.0193
vn -0.0100 -0.9998 -0.0173
vn 0.0052 -0.9998 -0.0193
vn -0.0000 -0.9998 -0.0200
vn 0.0200 -0.9998 -0.0000
vn 0.0052 -0.9998 0.0193
vn -0.0173 -0.9998 0.0100
vn -0.0141 -0.9998 -0.0141
vn -0.5989 -0.7223 -0.3458
vn -0.4890 -0.7223 -0.4890
vn -0.1790 -0.7223 0.6680
vn -0.3458 -0.7223 0.5989
vn 0.6916 -0.7223 -0.0000
vn 0.6680 -0.7223 0.1790
vn -0.3458 -0.7223 -0.5989
vn -0.4890 -0.7223 0.4890
vn 0.5989 -0.7223 0.3458
vn -0.1790 -0.7223 -0.6680
vn -0.0000 -0.7223 -0.6915
vn 0.1790 -0.7223 -0.6680
vn -0.5989 -0.7223 0.3458
vn 0.4890 -0.7223 0.4890
vn 0.3458 -0.7223 -0.5989
vn -0.6680 -0.7223 0.1790
vn 0.3458 -0.7223 0.5989
vn 0.4890 -0.7223 -0.4890
vn -0.6916 -0.7223 -0.0000
vn 0.1790 -0.7223 0.6680
vn 0.5989 -0.7223 -0.3458
vn -0.6680 -0.7223 -0.1790
vn -0.0000 -0.7223 0.6916
vn 0.6680 -0.7223 -0.1790
vn 0.1563 -0.9753 0.1563
vn 0.1105 -0.9753 0.1914
vn 0.1105 -0.9753 -0.1914
vn 0.1563 -0.9753 -0.1563
vn -0.2135 -0.9753 0.0572
vn -0.2210 -0.9753 -0.0000
vn 0.0572 -0.9753 0.2135
vn 0.1914 -0.9753 -0.1105
vn -0.2135 -0.9753 -0.0572
vn -0.0000 -0.9753 0.2210
vn 0.2135 -0.9753 -0.0572
vn -0.1914 -0.9753 -0.1105
vn -0.0572 -0.9753 0.2135
vn 0.2210 -0.9753 -0.0000
vn -0.1563 -0.9753 -0.1563
vn -0.1105 -0.9753 0.1914
vn 0.2135 -0.9753 0.0572
vn -0.1105 -0.9753 -0.1914
vn -0.1563 -0.9753 0.1563
vn 0.1914 -0.9753 0.1105
vn -0.0572 -0.9753 -0.2135
vn -0.0000 -0.9753 -0.2210
vn 0.0572 -0.9753 -0.2135
vn -0.1914 -0.9753 0.1105
vn 0.6589 0.3629 0.6589
vn 0.8070 0.3629 0.4659
vn -0.0000 0.3628 -0.9319
vn -0.2412 0.3628 -0.9001
vn 0.4659 0.3628 -0.8070
vn 0.2412 0.3628 -0.9001
vn -0.9001 0.3628 0.2412
vn -0.8070 0.3628 0.4659
vn 0.4659 0.3628 0.8070
vn 0.6589 0.3629 -0.6589
vn -0.9318 0.3629 -0.0000
vn 0.2412 0.3628 0.9001
vn 0.8070 0.3629 -0.4659
vn -0.9001 0.3628 -0.2412
vn -0.0000 0.3628 0.9319
vn 0.9001 0.3629 -0.2412
vn -0.8070 0.3628 -0.4659
vn -0.2412 0.3628 0.9001
vn 0.9319 0.3628 -0.0000
vn -0.6589 0.3628 -0.6589
vn -0.4659 0.3629 0.8070
vn 0.9001 0.3628 0.2412
vn -0.4659 0.3628 -0.8070
vn -0.6589 0.3628 0.6589
vt 0.594593 0.508264
vt 0.589732 0.526546
vt 0.589575 0.545445
vt 0.594260 0.563658
vt 0.603640 0.579988
vt 0.617002 0.593422
vt 0.633261 0.603069
vt 0.651491 0.607953
vt 0.670390 0.608150
vt 0.688647 0.603494
vt 0.705020 0.594113
vt 0.718485 0.580726
vt 0.728145 0.564424
vt 0.733005 0.546143
vt 0.733163 0.527244
vt 0.728477 0.509031
vt 0.719097 0.492701
vt 0.705736 0.479267
vt 0.689477 0.469620
vt 0.671246 0.464736
vt 0.652347 0.464539
vt 0.634090 0.469195
vt 0.617717 0.478576
vt 0.604253 0.491963
vt 0.661369 0.536344
vt 0.587445 0.505272
vt 0.581888 0.525491
vt 0.581845 0.546433
vt 0.587144 0.566547
vt 0.597403 0.584690
vt 0.612134 0.599678
vt 0.630267 0.610194
vt 0.650418 0.615786
vt 0.671359 0.615888
vt 0.691531 0.610630
vt 0.709729 0.600368
vt 0.724758 0.585605
vt 0.735292 0.567417
vt 0.740850 0.547198
vt 0.740893 0.526256
vt 0.735594 0.506141
vt 0.725335 0.487998
vt 0.710603 0.473011
vt 0.692470 0.462495
vt 0.672319 0.456902
vt 0.651379 0.456800
vt 0.631206 0.462058
vt 0.613008 0.472320
vt 0.597980 0.487084
vt 0.554569 0.491677
vt 0.547020 0.520903
vt 0.546924 0.551003
vt 0.554488 0.579895
vt 0.569269 0.606109
vt 0.590616 0.627741
vt 0.616692 0.642957
vt 0.645642 0.650583
vt 0.675718 0.650851
vt 0.704871 0.643400
vt 0.731207 0.628608
vt 0.752916 0.607199
vt 0.768168 0.581012
vt 0.775718 0.551786
vt 0.775814 0.521685
vt 0.768250 0.492794
vt 0.753469 0.466579
vt 0.732121 0.444948
vt 0.706046 0.429732
vt 0.677095 0.422106
vt 0.647019 0.421838
vt 0.617866 0.429288
vt 0.591531 0.444080
vt 0.569822 0.465489
vt 0.726114 0.051316
vt 0.746153 0.051238
vt 0.765508 0.056597
vt 0.782954 0.066650
vt 0.797140 0.080864
vt 0.807151 0.098249
vt 0.812340 0.117607
vt 0.812447 0.137598
vt 0.807209 0.156902
vt 0.797164 0.174281
vt 0.782889 0.188490
vt 0.765480 0.198635
vt 0.746084 0.203866
vt 0.726045 0.203944
vt 0.706690 0.198585
vt 0.689244 0.188532
vt 0.675058 0.174318
vt 0.665047 0.156933
vt 0.659858 0.137575
vt 0.659751 0.117584
vt 0.664988 0.098280
vt 0.675034 0.080901
vt 0.689309 0.066692
vt 0.706717 0.056547
vt 0.736099 0.127591
vt 0.725036 0.043006
vt 0.747242 0.043012
vt 0.768787 0.048742
vt 0.788108 0.059996
vt 0.803824 0.075788
vt 0.814906 0.095078
vt 0.820618 0.116533
vt 0.820634 0.138664
vt 0.814950 0.160078
vt 0.803861 0.179381
vt 0.788094 0.195259
vt 0.768688 0.206425
vt 0.747162 0.212176
vt 0.724955 0.212170
vt 0.703411 0.206440
vt 0.684089 0.195186
vt 0.668373 0.179394
vt 0.657292 0.160104
vt 0.651579 0.138649
vt 0.651564 0.116518
vt 0.657247 0.095104
vt 0.668337 0.075801
vt 0.684104 0.059923
vt 0.703510 0.048757
vt 0.720891 0.011698
vt 0.552035 0.490635
vt 0.751367 0.011698
vt 0.544233 0.520544
vt 0.780865 0.019595
vt 0.544233 0.551347
vt 0.807324 0.034946
vt 0.551932 0.580920
vt 0.828841 0.056601
vt 0.567043 0.607777
vt 0.843985 0.083031
vt 0.588882 0.629975
vt 0.851774 0.112413
vt 0.615651 0.645472
vt 0.851794 0.142702
vt 0.645268 0.653313
vt 0.844076 0.172001
vt 0.676043 0.653596
vt 0.829008 0.198489
vt 0.705894 0.645976
vt 0.807428 0.220273
vt 0.732878 0.630844
vt 0.780861 0.235618
vt 0.755159 0.608940
vt 0.751307 0.243484
vt 0.770702 0.582053
vt 0.720831 0.243484
vt 0.778505 0.552145
vt 0.691333 0.235587
vt 0.778505 0.521342
vt 0.664874 0.220237
vt 0.770806 0.491768
vt 0.643357 0.198581
vt 0.755695 0.464912
vt 0.628213 0.172151
vt 0.733856 0.442713
vt 0.620423 0.142769
vt 0.707086 0.427217
vt 0.620404 0.112480
vt 0.677469 0.419376
vt 0.628121 0.083181
vt 0.646695 0.419093
vt 0.643189 0.056694
vt 0.616844 0.426712
vt 0.664770 0.034909
vt 0.589860 0.441845
vt 0.691336 0.019564
vt 0.567579 0.463749
s 1
usemtl Kitchen_Utensils.006
f 6/6/1 5/5/2 25/25/3
f 11/11/4 10/10/5 25/25/3
f 16/16/6 15/15/7 25/25/3
f 21/21/8 20/20/9 25/25/3
f 4/4/10 3/3/11 25/25/3
f 9/9/12 8/8/13 25/25/3
f 14/14/14 13/13/15 25/25/3
f 19/19/16 18/18/17 25/25/3
f 24/24/18 23/23/19 25/25/3
f 2/2/20 1/1/21 25/25/3
f 7/7/22 6/6/1 25/25/3
f 12/12/23 11/11/4 25/25/3
f 17/17/24 16/16/6 25/25/3
f 22/22/25 21/21/8 25/25/3
f 5/5/2 4/4/10 25/25/3
f 10/10/5 9/9/12 25/25/3
f 15/15/7 14/14/14 25/25/3
f 20/20/9 19/19/16 25/25/3
f 1/1/21 24/24/18 25/25/3
f 3/3/11 2/2/20 25/25/3
f 8/8/13 7/7/22 25/25/3
f 13/13/15 12/12/23 25/25/3
f 18/18/17 17/17/24 25/25/3
f 23/23/19 22/22/25 25/25/3
f 21/21/26 22/22/27 47/47/27 46/46/26
f 14/14/28 15/15/29 40/40/29 39/39/28
f 7/7/30 8/8/31 33/33/31 32/32/30
f 22/22/27 23/23/32 48/48/32 47/47/27
f 15/15/29 16/16/33 41/41/33 40/40/29
f 8/8/31 9/9/34 34/34/34 33/33/31
f 23/23/32 24/24/35 49/49/35 48/48/32
f 1/1/36 2/2/37 27/27/37 26/26/36
f 16/16/33 17/17/38 42/42/38 41/41/33
f 9/9/34 10/10/39 35/35/39 34/34/34
f 24/24/35 1/1/36 26/26/36 49/49/35
f 2/2/37 3/3/40 28/28/40 27/27/37
f 17/17/38 18/18/41 43/43/41 42/42/38
f 10/10/39 11/11/42 36/36/42 35/35/39
f 3/3/40 4/4/43 29/29/43 28/28/40
f 18/18/41 19/19/44 44/44/44 43/43/41
f 11/11/42 12/12/45 37/37/45 36/36/42
f 4/4/43 5/5/46 30/30/46 29/29/43
f 19/19/44 20/20/47 45/45/47 44/44/44
f 12/12/45 13/13/48 38/38/48 37/37/45
f 5/5/46 6/6/49 31/31/49 30/30/46
f 20/20/47 21/21/26 46/46/26 45/45/47
f 13/13/48 14/14/28 39/39/28 38/38/48
f 6/6/49 7/7/30 32/32/30 31/31/49
f 35/35/50 36/36/51 60/60/51 59/59/50
f 28/28/52 29/29/53 53/53/53 52/52/52
f 43/43/54 44/44/55 68/68/55 67/67/54
f 36/36/51 37/37/56 61/61/56 60/60/51
f 29/29/53 30/30/57 54/54/57 53/53/53
f 44/44/55 45/45/58 69/69/58 68/68/55
f 37/37/56 38/38/59 62/62/59 61/61/56
f 30/30/57 31/31/60 55/55/60 54/54/57
f 45/45/58 46/46/61 70/70/61 69/69/58
f 38/38/59 39/39/62 63/63/62 62/62/59
f 31/31/60 32/32/63 56/56/63 55/55/60
f 46/46/61 47/47/64 71/71/64 70/70/61
f 39/39/62 40/40/65 64/64/65 63/63/62
f 32/32/63 33/33/66 57/57/66 56/56/63
f 47/47/64 48/48/67 72/72/67 71/71/64
f 40/40/65 41/41/68 65/65/68 64/64/65
f 33/33/66 34/34/69 58/58/69 57/57/66
f 48/48/67 49/49/70 73/73/70 72/72/67
f 26/26/71 27/27/72 51/51/72 50/50/71
f 41/41/68 42/42/73 66/66/73 65/65/68
f 34/34/69 35/35/50 59/59/50 58/58/69
f 49/49/70 26/26/71 50/50/71 73/73/70
f 27/27/72 28/28/52 52/52/52 51/51/72
f 42/42/73 43/43/54 67/67/54 66/66/73
f 79/79/74 98/98/75 78/78/76
f 84/84/77 98/98/75 83/83/78
f 89/89/79 98/98/75 88/88/80
f 94/94/81 98/98/75 93/93/82
f 77/77/83 98/98/75 76/76/84
f 82/82/85 98/98/75 81/81/86
f 87/87/87 98/98/75 86/86/88
f 92/92/89 98/98/75 91/91/90
f 97/97/91 98/98/75 96/96/92
f 75/75/93 98/98/75 74/74/94
f 80/80/95 98/98/75 79/79/74
f 85/85/96 98/98/75 84/84/77
f 90/90/97 98/98/75 89/89/79
f 95/95/98 98/98/75 94/94/81
f 78/78/76 98/98/75 77/77/83
f 83/83/78 98/98/75 82/82/85
f 88/88/80 98/98/75 87/87/87
f 93/93/82 98/98/75 92/92/89
f 74/74/94 98/98/75 97/97/91
f 76/76/84 98/98/75 75/75/93
f 81/81/86 98/98/75 80/80/95
f 86/86/88 98/98/75 85/85/96
f 91/91/90 98/98/75 90/90/97
f 96/96/92 98/98/75 95/95/98
f 94/94/99 119/119/99 120/120/100 95/95/100
f 87/87/101 112/112/101 113/113/102 88/88/102
f 80/80/103 105/105/103 106/106/104 81/81/104
f 95/95/100 120/120/100 121/121/105 96/96/105
f 88/88/102 113/113/102 114/114/106 89/89/106
f 81/81/104 106/106/104 107/107/107 82/82/107
f 96/96/105 121/121/105 122/122/108 97/97/108
f 74/74/109 99/99/109 100/100/110 75/75/110
f 89/89/106 114/114/106 115/115/111 90/90/111
f 82/82/107 107/107/107 108/108/112 83/83/112
f 97/97/108 122/122/108 99/99/109 74/74/109
f 75/75/110 100/100/110 101/101/113 76/76/113
f 90/90/111 115/115/111 116/116/114 91/91/114
f 83/83/112 108/108/112 109/109/115 84/84/115
f 76/76/113 101/101/113 102/102/116 77/77/116
f 91/91/114 116/116/114 117/117/117 92/92/117
f 84/84/115 109/109/115 110/110/118 85/85/118
f 77/77/116 102/102/116 103/103/119 78/78/119
f 92/92/117 117/117/117 118/118/120 93/93/120
f 85/85/118 110/110/118 111/111/121 86/86/121
f 78/78/119 103/103/119 104/104/122 79/79/122
f 93/93/120 118/118/120 119/119/99 94/94/99
f 86/86/121 111/111/121 112/112/101 87/87/101
f 79/79/122 104/104/122 105/105/103 80/80/103
f 108/108/123 132/141/123 133/143/124 109/109/124
f 101/101/125 125/127/125 126/129/126 102/102/126
f 116/116/127 140/157/127 141/159/128 117/117/128
f 109/109/124 133/143/124 134/145/129 110/110/129
f 102/102/126 126/129/126 127/131/130 103/103/130
f 117/117/128 141/159/128 142/161/131 118/118/131
f 110/110/129 134/145/129 135/147/132 111/111/132
f 103/103/130 127/131/130 128/133/133 104/104/133
f 118/118/131 142/161/131 143/163/134 119/119/134
f 111/111/132 135/147/132 136/149/135 112/112/135
f 104/104/133 128/133/133 129/135/136 105/105/136
f 119/119/134 143/163/134 144/165/137 120/120/137
f 112/112/135 136/149/135 137/151/138 113/113/138
f 105/105/136 129/135/136 130/137/139 106/106/139
f 120/120/137 144/165/137 145/167/140 121/121/140
f 113/113/138 137/151/138 138/153/141 114/114/141
f 106/106/139 130/137/139 131/139/142 107/107/142
f 121/121/140 145/167/140 146/169/143 122/122/143
f 99/99/144 123/123/144 124/125/145 100/100/145
f 114/114/141 138/153/141 139/155/146 115/115/146
f 107/107/142 131/139/142 132/141/123 108/108/123
f 122/122/143 146/169/143 123/123/144 99/99/144
f 100/100/145 124/125/145 125/127/125 101/101/125
f 115/115/146 139/155/146 140/157/127 116/116/127
f 59/59/147 132/142/147 131/140/148 58/58/148
f 50/50/149 123/124/149 146/170/150 73/73/150
f 52/52/151 125/128/151 124/126/152 51/51/152
f 67/67/153 140/158/153 139/156/154 66/66/154
f 60/60/155 133/144/155 132/142/147 59/59/147
f 53/53/156 126/130/156 125/128/151 52/52/151
f 68/68/157 141/160/157 140/158/153 67/67/153
f 61/61/158 134/146/158 133/144/155 60/60/155
f 54/54/159 127/132/159 126/130/156 53/53/156
f 69/69/160 142/162/160 141/160/157 68/68/157
f 62/62/161 135/148/161 134/146/158 61/61/158
f 55/55/162 128/134/162 127/132/159 54/54/159
f 70/70/163 143/164/163 142/162/160 69/69/160
f 63/63/164 136/150/164 135/148/161 62/62/161
f 56/56/165 129/136/165 128/134/162 55/55/162
f 71/71/166 144/166/166 143/164/163 70/70/163
f 64/64/167 137/152/167 136/150/164 63/63/164
f 57/57/168 130/138/168 129/136/165 56/56/165
f 72/72/169 145/168/169 144/166/166 71/71/166
f 65/65/170 138/154/170 137/152/167 64/64/167
f 58/58/148 131/140/148 130/138/168 57/57/168
f 73/73/150 146/170/150 145/168/169 72/72/169
f 51/51/152 124/126/152 123/124/149 50/50/149
f 66/66/154 139/156/154 138/154/170 65/65/170
